<svg width="256" height="256" viewBox="0 0 256 256" fill="none" xmlns="http://www.w3.org/2000/svg">
<rect x="23.3164" y="163.5" width="211" height="40.7372" rx="20.3686" fill="#1DB954" stroke="black" stroke-width="3"/>
<circle cx="97.1102" cy="81.2938" r="35.2938" fill="white" stroke="black" stroke-width="4"/>
<circle cx="109.503" cy="93.4313" r="12.4313" fill="black"/>
<circle cx="157.11" cy="81.2938" r="35.2938" fill="white" stroke="black" stroke-width="4"/>
<circle cx="169.503" cy="93.4313" r="12.4313" fill="black"/>
<path d="M185.336 128.035C190.917 128.294 195.95 130.343 199.791 133.54C203.205 131.978 207.104 131.176 211.209 131.367C223.898 131.956 233.75 141.796 233.214 153.346C232.804 162.186 226.427 169.466 217.768 172.131C217.589 172.186 217.408 172.239 217.227 172.29C215.083 172.896 212.807 173.221 210.452 173.221C210.06 173.22 209.665 173.211 209.269 173.193L208.676 173.159C208.479 173.145 208.283 173.129 208.087 173.111C205.743 172.893 203.506 172.359 201.428 171.557C201.081 171.424 200.739 171.283 200.401 171.134C198.351 170.234 196.471 169.067 194.813 167.687C191.398 169.249 187.5 170.052 183.395 169.861C179.055 169.66 175.046 168.375 171.672 166.31C167.563 169.107 162.391 170.663 156.841 170.406C144.153 169.817 134.301 159.976 134.836 148.426C135.372 136.877 146.093 127.991 158.782 128.579C163.122 128.781 167.13 130.064 170.504 132.129C174.613 129.332 179.787 127.778 185.336 128.035Z" fill="white"/>
<path d="M199.791 133.54L198.511 135.077L199.478 135.882L200.623 135.359L199.791 133.54ZM233.214 153.346L235.212 153.439L235.212 153.439L233.214 153.346ZM217.768 172.131L217.18 170.219L217.18 170.219L217.768 172.131ZM217.227 172.29L217.771 174.215L217.771 174.215L217.227 172.29ZM210.452 173.221L210.453 171.221L210.453 171.221L210.452 173.221ZM209.269 173.193L209.153 175.19L209.164 175.19L209.176 175.191L209.269 173.193ZM208.676 173.159L208.537 175.154L208.548 175.155L208.56 175.155L208.676 173.159ZM208.087 173.111L207.903 175.102L207.903 175.102L208.087 173.111ZM201.428 171.557L202.147 169.691L201.428 171.557ZM200.401 171.134L201.206 169.303L201.206 169.303L200.401 171.134ZM194.813 167.687L196.092 166.15L195.125 165.345L193.981 165.868L194.813 167.687ZM171.672 166.31L172.716 164.604L171.614 163.93L170.547 164.657L171.672 166.31ZM156.841 170.406L156.749 172.403L156.841 170.406ZM134.836 148.426L132.839 148.334L132.839 148.334L134.836 148.426ZM170.504 132.129L169.46 133.835L170.562 134.509L171.63 133.782L170.504 132.129ZM185.336 128.035L185.243 130.033C190.391 130.272 195.006 132.16 198.511 135.077L199.791 133.54L201.07 132.003C196.893 128.526 191.444 126.316 185.429 126.037L185.336 128.035ZM199.791 133.54L200.623 135.359C203.749 133.929 207.331 133.189 211.117 133.365L211.209 131.367L211.302 129.369C206.877 129.164 202.662 130.027 198.959 131.721L199.791 133.54ZM211.209 131.367L211.117 133.365C222.883 133.911 231.693 142.979 231.216 153.253L233.214 153.346L235.212 153.439C235.807 140.613 224.913 130.001 211.302 129.369L211.209 131.367ZM233.214 153.346L231.216 153.253C230.851 161.131 225.153 167.765 217.18 170.219L217.768 172.131L218.357 174.042C227.701 171.166 234.757 163.241 235.212 153.439L233.214 153.346ZM217.768 172.131L217.18 170.219C217.016 170.27 216.85 170.319 216.683 170.366L217.227 172.29L217.771 174.215C217.967 174.16 218.162 174.102 218.357 174.042L217.768 172.131ZM217.227 172.29L216.683 170.366C214.716 170.922 212.623 171.221 210.453 171.221L210.452 173.221L210.452 175.221C212.991 175.221 215.45 174.871 217.771 174.215L217.227 172.29ZM210.452 173.221L210.453 171.221C210.091 171.22 209.727 171.212 209.361 171.195L209.269 173.193L209.176 175.191C209.603 175.211 210.029 175.22 210.452 175.221L210.452 173.221ZM209.269 173.193L209.384 171.196L208.791 171.162L208.676 173.159L208.56 175.155L209.153 175.19L209.269 173.193ZM208.676 173.159L208.814 171.164C208.634 171.151 208.453 171.136 208.272 171.119L208.087 173.111L207.903 175.102C208.113 175.122 208.324 175.139 208.537 175.154L208.676 173.159ZM208.087 173.111L208.272 171.119C206.111 170.919 204.055 170.427 202.147 169.691L201.428 171.557L200.708 173.423C202.958 174.291 205.374 174.868 207.903 175.102L208.087 173.111ZM201.428 171.557L202.147 169.691C201.829 169.569 201.515 169.439 201.206 169.303L200.401 171.134L199.597 172.965C199.963 173.126 200.333 173.279 200.708 173.423L201.428 171.557ZM200.401 171.134L201.206 169.303C199.325 168.477 197.605 167.409 196.092 166.15L194.813 167.687L193.533 169.224C195.337 170.725 197.377 171.99 199.597 172.965L200.401 171.134ZM194.813 167.687L193.981 165.868C190.854 167.299 187.273 168.039 183.488 167.863L183.395 169.861L183.302 171.859C187.727 172.064 191.942 171.2 195.645 169.506L194.813 167.687ZM183.395 169.861L183.488 167.863C179.485 167.678 175.804 166.494 172.716 164.604L171.672 166.31L170.628 168.016C174.289 170.256 178.624 171.642 183.302 171.859L183.395 169.861ZM171.672 166.31L170.547 164.657C166.796 167.21 162.052 168.645 156.934 168.408L156.841 170.406L156.749 172.403C162.73 172.681 168.33 171.005 172.798 167.964L171.672 166.31ZM156.841 170.406L156.934 168.408C145.168 167.862 136.358 158.793 136.834 148.519L134.836 148.426L132.839 148.334C132.244 161.16 143.137 171.772 156.749 172.403L156.841 170.406ZM134.836 148.426L136.834 148.519C137.311 138.245 146.923 130.031 158.689 130.577L158.782 128.579L158.875 126.582C145.263 125.95 133.434 135.508 132.839 148.334L134.836 148.426ZM158.782 128.579L158.689 130.577C162.692 130.763 166.373 131.946 169.46 133.835L170.504 132.129L171.548 130.422C167.887 128.183 163.552 126.799 158.875 126.582L158.782 128.579ZM170.504 132.129L171.63 133.782C175.38 131.229 180.125 129.796 185.243 130.033L185.336 128.035L185.429 126.037C179.448 125.76 173.847 127.434 169.379 130.475L170.504 132.129Z" fill="black"/>
<path d="M69.3935 125.135C74.9691 124.769 80.2068 126.367 84.3945 129.32C87.6058 127.269 91.386 125.97 95.4867 125.701C108.162 124.868 119.093 134.183 119.903 146.507C120.713 158.831 111.094 169.497 98.4184 170.33C92.8424 170.696 87.6043 169.098 83.4164 166.144C80.2052 168.195 76.4258 169.495 72.3252 169.765C67.9894 170.049 63.8579 169.146 60.2655 167.342C56.5079 170.784 51.5497 173.029 46.0065 173.393C33.3312 174.226 22.3996 164.91 21.59 152.585C20.7806 140.261 30.3996 129.596 43.0748 128.764C47.4102 128.479 51.5413 129.381 55.1335 131.185C58.8911 127.744 63.8502 125.499 69.3935 125.135Z" fill="white"/>
<path d="M84.3945 129.32L83.2418 130.955L84.3392 131.729L85.471 131.006L84.3945 129.32ZM119.903 146.507L121.899 146.376L121.899 146.376L119.903 146.507ZM83.4164 166.144L84.5692 164.51L83.4718 163.736L82.34 164.459L83.4164 166.144ZM60.2655 167.342L61.1632 165.555L59.9312 164.936L58.9146 165.867L60.2655 167.342ZM46.0065 173.393L46.1375 175.389L46.0065 173.393ZM21.59 152.585L19.5943 152.717L19.5943 152.717L21.59 152.585ZM55.1335 131.185L54.2359 132.973L55.4678 133.591L56.4844 132.66L55.1335 131.185ZM69.3935 125.135L69.5246 127.131C74.6323 126.795 79.4188 128.259 83.2418 130.955L84.3945 129.32L85.5471 127.686C80.9948 124.475 75.3058 122.743 69.2625 123.14L69.3935 125.135ZM84.3945 129.32L85.471 131.006C88.404 129.132 91.86 127.943 95.6178 127.696L95.4867 125.701L95.3556 123.705C90.912 123.997 86.8076 125.406 83.3179 127.635L84.3945 129.32ZM95.4867 125.701L95.6178 127.696C107.244 126.932 117.173 135.469 117.907 146.638L119.903 146.507L121.899 146.376C121.013 132.897 109.08 122.803 95.3556 123.705L95.4867 125.701ZM119.903 146.507L117.907 146.638C118.641 157.808 109.913 167.57 98.2873 168.334L98.4184 170.33L98.5495 172.326C112.274 171.424 122.784 159.855 121.899 146.376L119.903 146.507ZM98.4184 170.33L98.2873 168.334C93.1792 168.67 88.3924 167.206 84.5692 164.51L83.4164 166.144L82.2637 167.778C86.8162 170.989 92.5055 172.723 98.5495 172.326L98.4184 170.33ZM83.4164 166.144L82.34 164.459C79.4066 166.332 75.9514 167.522 72.1941 167.769L72.3252 169.765L72.4563 171.76C76.9002 171.468 81.0038 170.058 84.4929 167.83L83.4164 166.144ZM72.3252 169.765L72.1941 167.769C68.2209 168.03 64.4439 167.203 61.1632 165.555L60.2655 167.342L59.3678 169.129C63.2719 171.09 67.7578 172.069 72.4563 171.76L72.3252 169.765ZM60.2655 167.342L58.9146 165.867C55.4842 169.009 50.9534 171.064 45.8754 171.397L46.0065 173.393L46.1375 175.389C52.1459 174.994 57.5316 172.558 61.6163 168.817L60.2655 167.342ZM46.0065 173.393L45.8754 171.397C34.2491 172.161 24.3195 163.624 23.5857 152.454L21.59 152.585L19.5943 152.717C20.4798 166.195 32.4133 176.29 46.1375 175.389L46.0065 173.393ZM21.59 152.585L23.5857 152.454C22.8522 141.285 31.5797 131.523 43.2059 130.759L43.0748 128.764L42.9437 126.768C29.2196 127.67 18.7091 139.238 19.5943 152.717L21.59 152.585ZM43.0748 128.764L43.2059 130.759C47.1788 130.498 50.9555 131.325 54.2359 132.973L55.1335 131.185L56.0311 129.398C52.1272 127.438 47.6416 126.459 42.9437 126.768L43.0748 128.764ZM55.1335 131.185L56.4844 132.66C59.9145 129.519 64.4461 127.465 69.5246 127.131L69.3935 125.135L69.2625 123.14C63.2543 123.534 57.8676 125.969 53.7826 129.711L55.1335 131.185Z" fill="black"/>
</svg>
